<?xml version="1.0" encoding="UTF-8" standalone="no"?>
<!-- Created with Inkscape (http://www.inkscape.org/) -->

<svg
   width="210mm"
   height="297mm"
   viewBox="0 0 210 297"
   version="1.1"
   id="svg1"
   inkscape:version="1.4.2 (f4327f4, 2025-05-13)"
   sodipodi:docname="appcket-logo.svg"
   inkscape:export-filename="logo.svg"
   inkscape:export-xdpi="96"
   inkscape:export-ydpi="96"
   xmlns:inkscape="http://www.inkscape.org/namespaces/inkscape"
   xmlns:sodipodi="http://sodipodi.sourceforge.net/DTD/sodipodi-0.dtd"
   xmlns="http://www.w3.org/2000/svg"
   xmlns:svg="http://www.w3.org/2000/svg">
  <sodipodi:namedview
     id="namedview1"
     pagecolor="#ffffff"
     bordercolor="#666666"
     borderopacity="1.0"
     inkscape:showpageshadow="2"
     inkscape:pageopacity="0.0"
     inkscape:pagecheckerboard="0"
     inkscape:deskcolor="#d1d1d1"
     inkscape:document-units="mm"
     inkscape:lockguides="false"
     showguides="false"
     inkscape:zoom="1.9477379"
     inkscape:cx="257.99159"
     inkscape:cy="386.34562"
     inkscape:window-width="1920"
     inkscape:window-height="991"
     inkscape:window-x="2551"
     inkscape:window-y="980"
     inkscape:window-maximized="1"
     inkscape:current-layer="layer1">
    <sodipodi:guide
       position="71.741209,196.49439"
       orientation="1,0"
       id="guide3"
       inkscape:locked="false" />
    <sodipodi:guide
       position="74.802311,193.83765"
       orientation="0,-1"
       id="guide4"
       inkscape:locked="false" />
  </sodipodi:namedview>
  <defs
     id="defs1">
    <linearGradient
       id="swatch3"
       inkscape:swatch="solid">
      <stop
         style="stop-color:#c12e15;stop-opacity:1;"
         offset="0"
         id="stop3" />
    </linearGradient>
  </defs>
  <g
     inkscape:label="Logo"
     inkscape:groupmode="layer"
     id="layer1">
    <rect
       style="display:inline;fill:#03d31c;fill-opacity:1;stroke:none;stroke-width:6.00432;stroke-linejoin:round;stroke-opacity:1"
       id="rect11"
       width="83.153564"
       height="28.425014"
       x="57.498169"
       y="93.775162"
       inkscape:label="Test bg" />
    <g
       id="g2"
       inkscape:label="Rocket - BAK"
       style="display:none"
       transform="matrix(1,0,0,-1,0,215.40392)">
      <path
         id="path2"
         fill="#2c1139"
         fill-rule="evenodd"
         stroke="#441521"
         stroke-width="0.3175"
         stroke-linecap="square"
         stroke-linejoin="bevel"
         d="m 69.20103,101.63729 c -0.60325,1.5875 -0.770467,2.59643 -1.008592,4.12043 -0.228401,2.40715 -0.282011,3.78944 -0.269875,4.87363 l -1.857375,1.38112 v 3.429 l 4.078366,-2.6877 1.587903,0.0199 0.02803,-14.674314 c -1.1176,1.000148 -2.048342,2.337074 -2.558459,3.537944 z"
         sodipodi:nodetypes="cccccccccc"
         style="display:inline;stroke:none"
         inkscape:label="Backup left rocket side" />
      <path
         style="fill:#c02e15;fill-opacity:1;stroke:none;stroke-width:0.264583px;stroke-linecap:butt;stroke-linejoin:miter;stroke-opacity:1"
         d="m 70.295106,112.57851 0.317474,2.07158 0.463613,-0.61129 0.747128,3.26576 v -4.96377 z"
         id="path5"
         inkscape:label="flame left"
         sodipodi:nodetypes="cccccc" />
      <path
         style="display:inline;fill:#c02e15;fill-opacity:1;stroke:none;stroke-width:0.264583px;stroke-linecap:butt;stroke-linejoin:miter;stroke-opacity:1"
         d="m 73.342772,112.57851 -0.317474,2.07158 -0.463613,-0.61129 -0.747128,3.26576 v -4.96377 z"
         id="path6"
         inkscape:label="flame right"
         sodipodi:nodetypes="cccccc" />
      <path
         id="shape0"
         fill="#2c1139"
         fill-rule="evenodd"
         stroke="#441521"
         stroke-width="0.3175"
         stroke-linecap="square"
         stroke-linejoin="bevel"
         d="m 69.20103,101.63729 c -0.60325,1.5875 -0.770467,2.59643 -1.008592,4.12043 -0.228401,2.40715 -0.282011,3.78944 -0.269875,4.87363 l -1.857375,1.38112 v 3.429 l 4.078366,-2.6877 1.587903,0.0199 0.02803,-14.674314 c -1.1176,1.000148 -2.048342,2.337074 -2.558459,3.537944 z"
         sodipodi:nodetypes="cccccccccc"
         style="display:inline;fill:#03071c;fill-opacity:1;stroke:none"
         inkscape:label="left side" />
      <path
         id="path1"
         fill="#2c1139"
         fill-rule="evenodd"
         stroke="#441521"
         stroke-width="0.3175"
         stroke-linecap="square"
         stroke-linejoin="bevel"
         d="m 74.300607,101.63729 c 0.60325,1.5875 0.770467,2.59643 1.008592,4.12043 0.228401,2.40715 0.282011,3.78944 0.269875,4.87363 l 1.857375,1.38112 v 3.429 l -3.958298,-2.63967 -1.755998,-0.0281 0.02,-14.674324 c 1.1176,1.000148 2.048342,2.337074 2.558459,3.537944 z"
         sodipodi:nodetypes="cccccccccc"
         style="fill:#03071c;fill-opacity:1;stroke:none"
         inkscape:label="right side" />
      <rect
         style="fill:#ffffff;fill-opacity:1;stroke:none;stroke-width:4.33389;stroke-linejoin:round"
         id="rect4"
         width="2.3432629"
         height="3.2092516"
         x="70.552597"
         y="105.82012"
         inkscape:label="Bottom window" />
      <path
         style="fill:#ffffff;fill-opacity:1;stroke:none;stroke-width:0.291367px;stroke-linecap:butt;stroke-linejoin:miter;stroke-opacity:1"
         d="m 71.745553,100.93129 c -0.785165,0.50944 -1.20068,2.90427 -1.20068,2.90427 l 2.353331,-0.004 c 0,0 -0.377848,-2.41859 -1.152651,-2.90064 z"
         id="path3"
         sodipodi:nodetypes="ccccc"
         inkscape:label="Top window" />
    </g>
    <path
       style="font-weight:bold;font-size:14.8167px;font-family:Quantico;-inkscape-font-specification:'Quantico Bold';letter-spacing:0;word-spacing:0;fill:#c02e15;stroke:#000000;stroke-width:0;stroke-linecap:square;stroke-linejoin:bevel;stroke-opacity:0;fill-opacity:1"
       d="m 79.354245,113.34721 v -10.37169 h 5.467363 l 1.718737,0.99272 v 4.62281 l -1.718737,0.99272 h -3.393025 v 3.76344 z m 2.074338,-8.59368 v 3.05224 h 3.037424 v -3.05224 z m 7.186099,8.59368 v -10.37169 h 5.467363 l 1.718737,0.99272 v 4.62281 l -1.718737,0.99272 H 90.68902 v 3.76344 z m 2.074338,-8.59368 v 3.05224 h 3.037424 v -3.05224 z m 12.74236,5.55626 h 2.07434 v 2.11879 l -1.71874,0.99272 h -4.193124 l -1.718737,-0.99272 v -8.53442 l 1.718737,-0.99272 h 4.193124 l 1.71874,0.99272 v 2.11879 h -2.07434 v -1.33351 h -3.481923 v 6.96385 h 3.481923 z m 4.445,3.03742 v -10.37169 h 2.07434 v 4.66726 h 0.0296 l 3.86716,-4.66726 h 2.45957 l -4.08941,4.85988 4.54873,5.51181 h -2.48921 l -3.30412,-4.03014 -1.02235,1.20015 v 2.82999 z m 12.29787,-4.44501 v 2.66701 h 4.13386 v 1.778 h -6.2082 v -10.37169 h 6.2082 v 1.77801 h -4.13386 v 2.37067 h 3.24486 v 1.778 z m 10.04572,-4.14867 v 8.59368 h -2.07434 v -8.59368 h -2.80036 v -1.77801 h 7.67506 v 1.77801 z"
       id="shape0-4"
       inkscape:label="Text"
       aria-label="PPCKET"
       inkscape:export-filename="appcket-logo-light.svg"
       inkscape:export-xdpi="96"
       inkscape:export-ydpi="96" />
    <g
       id="g11"
       inkscape:label="Rocket"
       inkscape:export-filename="favicon.svg"
       inkscape:export-xdpi="96"
       inkscape:export-ydpi="96">
      <path
         id="path7"
         style="fill:#c02e15;fill-opacity:1;stroke:none;stroke-width:0.264583px;stroke-linecap:butt;stroke-linejoin:miter;stroke-opacity:1"
         inkscape:label="flame"
         d="M 71.814738 112.34095 L 71.814738 112.3425 L 70.294934 112.57866 L 70.612744 114.64985 L 71.076282 114.03903 L 71.814738 117.26623 L 71.814738 117.30447 L 71.818872 117.28535 L 71.823523 117.30447 L 71.823523 117.26623 L 72.561462 114.03903 L 73.025517 114.64985 L 73.34281 112.57866 L 71.823523 112.3425 L 71.823523 112.34095 L 71.818872 112.34146 L 71.814738 112.34095 z " />
      <path
         id="path9"
         style="display:inline;stroke:none;fill:#c02e15;fill-opacity:1"
         inkscape:label="main body"
         d="M 71.742391 98.099438 L 71.742391 98.114425 C 70.632273 99.112904 69.7085 100.44236 69.200944 101.63721 C 68.597694 103.22471 68.430345 104.23389 68.19222 105.75789 C 67.963819 108.16504 67.910333 109.5473 67.922469 110.63149 L 66.065218 112.01228 L 66.065218 115.44153 L 70.143522 112.75384 L 71.722237 112.77348 L 71.731539 112.77348 L 73.478202 112.8019 L 77.436617 115.44153 L 77.436617 112.01228 L 75.578849 110.63149 C 75.590985 109.5473 75.537499 108.16504 75.309098 105.75789 C 75.070973 104.23389 74.903624 103.22471 74.300374 101.63721 C 73.792892 100.44254 72.869344 99.113372 71.759444 98.114941 L 71.759444 98.099438 C 71.75655 98.102028 71.753551 98.104596 71.750659 98.10719 C 71.747775 98.104602 71.745277 98.102022 71.742391 98.099438 z M 71.745492 100.93079 C 72.520295 101.41284 72.898393 103.83139 72.898393 103.83139 L 70.545048 103.83552 C 70.545048 103.83552 70.960327 101.44075 71.745492 100.93131 L 71.745492 100.93079 z M 70.552799 105.8199 L 72.895809 105.8199 L 72.895809 109.02952 L 70.552799 109.02952 L 70.552799 105.8199 z " />
    </g>
  </g>
</svg>
