<?xml version="1.0" encoding="UTF-8" standalone="no"?>
<!-- Created with Inkscape (http://www.inkscape.org/) -->

<svg
   width="66.955109mm"
   height="19.205032mm"
   viewBox="0 0 66.955109 19.205032"
   version="1.1"
   id="svg1"
   inkscape:version="1.4.2 (f4327f4, 2025-05-13)"
   sodipodi:docname="appcket-logo.svg"
   inkscape:export-filename="logo.svg"
   inkscape:export-xdpi="96"
   inkscape:export-ydpi="96"
   xmlns:inkscape="http://www.inkscape.org/namespaces/inkscape"
   xmlns:sodipodi="http://sodipodi.sourceforge.net/DTD/sodipodi-0.dtd"
   xmlns="http://www.w3.org/2000/svg"
   xmlns:svg="http://www.w3.org/2000/svg">
  <sodipodi:namedview
     id="namedview1"
     pagecolor="#ffffff"
     bordercolor="#666666"
     borderopacity="1.0"
     inkscape:showpageshadow="2"
     inkscape:pageopacity="0.0"
     inkscape:pagecheckerboard="0"
     inkscape:deskcolor="#d1d1d1"
     inkscape:document-units="mm"
     inkscape:lockguides="false"
     showguides="false"
     inkscape:zoom="1.9477379"
     inkscape:cx="257.99159"
     inkscape:cy="386.34562"
     inkscape:window-width="1920"
     inkscape:window-height="991"
     inkscape:window-x="2551"
     inkscape:window-y="980"
     inkscape:window-maximized="1"
     inkscape:current-layer="layer1">
    <sodipodi:guide
       position="5.675991,16.798868"
       orientation="1,0"
       id="guide3"
       inkscape:locked="false" />
    <sodipodi:guide
       position="8.7370928,14.142129"
       orientation="0,-1"
       id="guide4"
       inkscape:locked="false" />
    <inkscape:page
       x="0"
       y="9.1976784e-15"
       width="66.955109"
       height="19.20503"
       id="page2"
       margin="0"
       bleed="0" />
  </sodipodi:namedview>
  <defs
     id="defs1">
    <linearGradient
       id="swatch3"
       inkscape:swatch="solid">
      <stop
         style="stop-color:#c12e15;stop-opacity:1;"
         offset="0"
         id="stop3" />
    </linearGradient>
  </defs>
  <g
     inkscape:label="Logo"
     inkscape:groupmode="layer"
     id="layer1"
     transform="translate(-66.065218,-98.099448)">
    <rect
       style="display:none;fill:#03d31c;fill-opacity:1;stroke:none;stroke-width:6.00432;stroke-linejoin:round;stroke-opacity:1"
       id="rect11"
       width="83.153564"
       height="28.425014"
       x="57.498169"
       y="93.775162"
       inkscape:label="Test bg" />
    <g
       id="g2"
       inkscape:label="Rocket - BAK"
       style="display:none"
       transform="matrix(1,0,0,-1,0,215.40392)">
      <path
         id="path2"
         fill="#2c1139"
         fill-rule="evenodd"
         stroke="#441521"
         stroke-width="0.3175"
         stroke-linecap="square"
         stroke-linejoin="bevel"
         d="m 69.20103,101.63729 c -0.60325,1.5875 -0.770467,2.59643 -1.008592,4.12043 -0.228401,2.40715 -0.282011,3.78944 -0.269875,4.87363 l -1.857375,1.38112 v 3.429 l 4.078366,-2.6877 1.587903,0.0199 0.02803,-14.674314 c -1.1176,1.000148 -2.048342,2.337074 -2.558459,3.537944 z"
         sodipodi:nodetypes="cccccccccc"
         style="display:inline;stroke:none"
         inkscape:label="Backup left rocket side" />
      <path
         style="fill:#c02e15;fill-opacity:1;stroke:none;stroke-width:0.264583px;stroke-linecap:butt;stroke-linejoin:miter;stroke-opacity:1"
         d="m 70.295106,112.57851 0.317474,2.07158 0.463613,-0.61129 0.747128,3.26576 v -4.96377 z"
         id="path5"
         inkscape:label="flame left"
         sodipodi:nodetypes="cccccc" />
      <path
         style="display:inline;fill:#c02e15;fill-opacity:1;stroke:none;stroke-width:0.264583px;stroke-linecap:butt;stroke-linejoin:miter;stroke-opacity:1"
         d="m 73.342772,112.57851 -0.317474,2.07158 -0.463613,-0.61129 -0.747128,3.26576 v -4.96377 z"
         id="path6"
         inkscape:label="flame right"
         sodipodi:nodetypes="cccccc" />
      <path
         id="shape0"
         fill="#2c1139"
         fill-rule="evenodd"
         stroke="#441521"
         stroke-width="0.3175"
         stroke-linecap="square"
         stroke-linejoin="bevel"
         d="m 69.20103,101.63729 c -0.60325,1.5875 -0.770467,2.59643 -1.008592,4.12043 -0.228401,2.40715 -0.282011,3.78944 -0.269875,4.87363 l -1.857375,1.38112 v 3.429 l 4.078366,-2.6877 1.587903,0.0199 0.02803,-14.674314 c -1.1176,1.000148 -2.048342,2.337074 -2.558459,3.537944 z"
         sodipodi:nodetypes="cccccccccc"
         style="display:inline;fill:#03071c;fill-opacity:1;stroke:none"
         inkscape:label="left side" />
      <path
         id="path1"
         fill="#2c1139"
         fill-rule="evenodd"
         stroke="#441521"
         stroke-width="0.3175"
         stroke-linecap="square"
         stroke-linejoin="bevel"
         d="m 74.300607,101.63729 c 0.60325,1.5875 0.770467,2.59643 1.008592,4.12043 0.228401,2.40715 0.282011,3.78944 0.269875,4.87363 l 1.857375,1.38112 v 3.429 l -3.958298,-2.63967 -1.755998,-0.0281 0.02,-14.674324 c 1.1176,1.000148 2.048342,2.337074 2.558459,3.537944 z"
         sodipodi:nodetypes="cccccccccc"
         style="fill:#03071c;fill-opacity:1;stroke:none"
         inkscape:label="right side" />
      <rect
         style="fill:#ffffff;fill-opacity:1;stroke:none;stroke-width:4.33389;stroke-linejoin:round"
         id="rect4"
         width="2.3432629"
         height="3.2092516"
         x="70.552597"
         y="105.82012"
         inkscape:label="Bottom window" />
      <path
         style="fill:#ffffff;fill-opacity:1;stroke:none;stroke-width:0.291367px;stroke-linecap:butt;stroke-linejoin:miter;stroke-opacity:1"
         d="m 71.745553,100.93129 c -0.785165,0.50944 -1.20068,2.90427 -1.20068,2.90427 l 2.353331,-0.004 c 0,0 -0.377848,-2.41859 -1.152651,-2.90064 z"
         id="path3"
         sodipodi:nodetypes="ccccc"
         inkscape:label="Top window" />
    </g>
    <path
       style="font-weight:bold;font-size:14.8167px;font-family:Quantico;-inkscape-font-specification:'Quantico Bold';letter-spacing:0;word-spacing:0;fill:#c02e15;fill-opacity:1;stroke:#000000;stroke-width:0;stroke-linecap:square;stroke-linejoin:bevel;stroke-opacity:0"
       d="m 79.354245,113.34721 v -10.37169 h 5.467363 l 1.718737,0.99272 v 4.62281 l -1.718737,0.99272 h -3.393025 v 3.76344 z m 2.074338,-8.59368 v 3.05224 h 3.037424 v -3.05224 z m 7.186099,8.59368 v -10.37169 h 5.467363 l 1.718737,0.99272 v 4.62281 l -1.718737,0.99272 H 90.68902 v 3.76344 z m 2.074338,-8.59368 v 3.05224 h 3.037424 v -3.05224 z m 12.74236,5.55626 h 2.07434 v 2.11879 l -1.71874,0.99272 h -4.193124 l -1.718737,-0.99272 v -8.53442 l 1.718737,-0.99272 h 4.193124 l 1.71874,0.99272 v 2.11879 h -2.07434 v -1.33351 h -3.481923 v 6.96385 h 3.481923 z m 4.445,3.03742 v -10.37169 h 2.07434 v 4.66726 h 0.0296 l 3.86716,-4.66726 h 2.45957 l -4.08941,4.85988 4.54873,5.51181 h -2.48921 l -3.30412,-4.03014 -1.02235,1.20015 v 2.82999 z m 12.29787,-4.44501 v 2.66701 h 4.13386 v 1.778 h -6.2082 v -10.37169 h 6.2082 v 1.77801 h -4.13386 v 2.37067 h 3.24486 v 1.778 z m 10.04572,-4.14867 v 8.59368 h -2.07434 v -8.59368 h -2.80036 v -1.77801 h 7.67506 v 1.77801 z"
       id="shape0-4"
       inkscape:label="Text"
       aria-label="PPCKET"
       inkscape:export-filename="appcket-logo-light.svg"
       inkscape:export-xdpi="96"
       inkscape:export-ydpi="96" />
    <g
       id="g11"
       inkscape:label="Rocket"
       inkscape:export-filename="favicon.svg"
       inkscape:export-xdpi="96"
       inkscape:export-ydpi="96">
      <path
         id="path7"
         style="fill:#c02e15;fill-opacity:1;stroke:none;stroke-width:0.264583px;stroke-linecap:butt;stroke-linejoin:miter;stroke-opacity:1"
         inkscape:label="flame"
         d="m 71.814738,112.34095 v 0.002 l -1.519804,0.23616 0.31781,2.07119 0.463538,-0.61082 0.738456,3.2272 v 0.0382 l 0.0041,-0.0191 0.0047,0.0191 v -0.0382 l 0.737939,-3.2272 0.464055,0.61082 0.317293,-2.07119 -1.519287,-0.23616 v -0.002 l -0.0047,5.1e-4 z" />
      <path
         id="path9"
         style="display:inline;fill:#c02e15;fill-opacity:1;stroke:none"
         inkscape:label="main body"
         d="m 71.742391,98.099438 v 0.01499 c -1.110118,0.998479 -2.033891,2.327932 -2.541447,3.522782 -0.60325,1.5875 -0.770599,2.59668 -1.008724,4.12068 -0.228401,2.40715 -0.281887,3.78941 -0.269751,4.8736 l -1.857251,1.38079 v 3.42925 l 4.078304,-2.68769 1.578715,0.0196 h 0.0093 l 1.746663,0.0284 3.958415,2.63963 v -3.42925 l -1.857768,-1.38079 c 0.01214,-1.08419 -0.04135,-2.46645 -0.269751,-4.8736 -0.238125,-1.524 -0.405474,-2.53318 -1.008724,-4.12068 -0.507482,-1.19467 -1.43103,-2.523835 -2.54093,-3.522266 v -0.0155 c -0.0029,0.0026 -0.0059,0.0052 -0.0088,0.0078 -0.0029,-0.0026 -0.0054,-0.0052 -0.0083,-0.0078 z m 0.0031,2.831352 c 0.774803,0.48205 1.152901,2.9006 1.152901,2.9006 l -2.353345,0.004 c 0,0 0.415279,-2.39477 1.200444,-2.90421 z m -1.192693,4.88911 h 2.34301 v 3.20962 h -2.34301 z" />
    </g>
  </g>
</svg>
