<?xml version="1.0" encoding="UTF-8" standalone="no"?>
<!-- Created with Inkscape (http://www.inkscape.org/) -->

<svg
   width="32.02433"
   height="31.960152"
   viewBox="0 0 8.4731039 8.4561234"
   version="1.1"
   id="svg1"
   inkscape:export-filename="favicon.svg"
   inkscape:export-xdpi="96"
   inkscape:export-ydpi="96"
   xmlns:inkscape="http://www.inkscape.org/namespaces/inkscape"
   xmlns:sodipodi="http://sodipodi.sourceforge.net/DTD/sodipodi-0.dtd"
   xmlns="http://www.w3.org/2000/svg"
   xmlns:svg="http://www.w3.org/2000/svg">
  <sodipodi:namedview
     id="namedview1"
     pagecolor="#ffffff"
     bordercolor="#666666"
     borderopacity="1.0"
     inkscape:showpageshadow="2"
     inkscape:pageopacity="0.0"
     inkscape:pagecheckerboard="0"
     inkscape:deskcolor="#d1d1d1"
     inkscape:document-units="mm"
     inkscape:zoom="15.581903"
     inkscape:cx="13.156287"
     inkscape:cy="13.830146"
     inkscape:window-width="1920"
     inkscape:window-height="991"
     inkscape:window-x="2551"
     inkscape:window-y="980"
     inkscape:window-maximized="1"
     inkscape:current-layer="svg1">
    <inkscape:page
       x="0"
       y="0"
       width="8.4731035"
       height="8.4561234"
       id="page2"
       margin="0"
       bleed="0" />
  </sodipodi:namedview>
  <defs
     id="defs1" />
  <g
     inkscape:label="BG"
     inkscape:groupmode="layer"
     id="layer1">
    <rect
       style="fill:#e6e6e6;fill-opacity:1;stroke:none;stroke-width:3.95634;stroke-linejoin:round"
       id="rect1"
       width="8.4731035"
       height="8.4561234"
       x="0"
       y="5.0762333e-10"
       inkscape:label="Color"
       rx="2.4960847"
       ry="2.4960847" />
  </g>
  <g
     id="g11"
     transform="matrix(0.40569248,0,0,0.40569248,-24.875474,-39.460612)"
     inkscape:label="Rocket">
    <path
       id="path7"
       style="fill:#c02e15;fill-opacity:1;stroke:none;stroke-width:0.264583px;stroke-linecap:butt;stroke-linejoin:miter;stroke-opacity:1"
       d="m 71.814738,112.34095 v 0.002 l -1.519804,0.23616 0.31781,2.07119 0.463538,-0.61082 0.738456,3.2272 v 0.0382 l 0.0041,-0.0191 0.0047,0.0191 v -0.0382 l 0.737939,-3.2272 0.464055,0.61082 0.317293,-2.07119 -1.519287,-0.23616 v -0.002 l -0.0047,5.1e-4 z"
       inkscape:label="Flame" />
    <path
       id="path9"
       style="display:inline;fill:#03071c;fill-opacity:1;stroke:none"
       d="m 71.742391,98.099438 v 0.01499 c -1.110118,0.998479 -2.033891,2.327932 -2.541447,3.522782 -0.60325,1.5875 -0.770599,2.59668 -1.008724,4.12068 -0.228401,2.40715 -0.281887,3.78941 -0.269751,4.8736 l -1.857251,1.38079 v 3.42925 l 4.078304,-2.68769 1.578715,0.0196 h 0.0093 l 1.746663,0.0284 3.958415,2.63963 v -3.42925 l -1.857768,-1.38079 c 0.01214,-1.08419 -0.04135,-2.46645 -0.269751,-4.8736 -0.238125,-1.524 -0.405474,-2.53318 -1.008724,-4.12068 -0.507482,-1.19467 -1.43103,-2.523835 -2.54093,-3.522266 v -0.0155 c -0.0029,0.0026 -0.0059,0.0052 -0.0088,0.0078 -0.0029,-0.0026 -0.0054,-0.0052 -0.0083,-0.0078 z m 0.0031,2.831352 c 0.774803,0.48205 1.152901,2.9006 1.152901,2.9006 l -2.353345,0.004 c 0,0 0.415279,-2.39477 1.200444,-2.90421 z m -1.192693,4.88911 h 2.34301 v 3.20962 h -2.34301 z"
       inkscape:label="Body" />
  </g>
</svg>
