<?xml version="1.0" encoding="UTF-8" standalone="no"?>
<svg
   width="44.409149mm"
   height="6.1622915mm"
   viewBox="0 0 44.40915 6.1622916"
   version="1.1"
   id="svg8"
   inkscape:version="1.1.1 (3bf5ae0d25, 2021-09-20)"
   sodipodi:docname="logo2.svg"
   inkscape:export-filename="C:\Users\Ryan\Desktop\appcket-logo.png"
   inkscape:export-xdpi="96"
   inkscape:export-ydpi="96"
   xmlns:inkscape="http://www.inkscape.org/namespaces/inkscape"
   xmlns:sodipodi="http://sodipodi.sourceforge.net/DTD/sodipodi-0.dtd"
   xmlns="http://www.w3.org/2000/svg"
   xmlns:svg="http://www.w3.org/2000/svg"
   xmlns:rdf="http://www.w3.org/1999/02/22-rdf-syntax-ns#"
   xmlns:cc="http://creativecommons.org/ns#"
   xmlns:dc="http://purl.org/dc/elements/1.1/">
  <defs
     id="defs2" />
  <sodipodi:namedview
     id="base"
     pagecolor="#ffffff"
     bordercolor="#666666"
     borderopacity="1.0"
     inkscape:pageopacity="0.0"
     inkscape:pageshadow="2"
     inkscape:zoom="7.919596"
     inkscape:cx="37.691317"
     inkscape:cy="-7.8918167"
     inkscape:document-units="mm"
     inkscape:current-layer="layer1"
     inkscape:document-rotation="0"
     showgrid="false"
     inkscape:window-width="1920"
     inkscape:window-height="1013"
     inkscape:window-x="-9"
     inkscape:window-y="-9"
     inkscape:window-maximized="1"
     inkscape:pagecheckerboard="0" />
  <metadata
     id="metadata5">
    <rdf:RDF>
      <cc:Work
         rdf:about="">
        <dc:format>image/svg+xml</dc:format>
        <dc:type
           rdf:resource="http://purl.org/dc/dcmitype/StillImage" />
      </cc:Work>
    </rdf:RDF>
  </metadata>
  <g
     inkscape:label="Layer 1"
     inkscape:groupmode="layer"
     id="layer1"
     transform="translate(-74.993689,-107.26068)">
    <g
       id="g842"
       style="stroke:none;fill:#ffffff;fill-opacity:1"
       transform="matrix(0.27107249,0,0,0.27107249,70.850488,80.431195)">
      <g
         aria-label="Appcket"
         id="text12"
         style="font-style:normal;font-weight:normal;font-size:31.75px;line-height:1.25;font-family:sans-serif;fill:#ffffff;fill-opacity:1;stroke:none;stroke-width:0.264583">
        <path
           d="m 53.096584,120.34308 v 1.36525 h -7.08025 l -2.2225,-5.04825 h -11.1125 l -2.2225,5.04825 h -7.08025 v -1.36525 h 3.683 l 9.17575,-20.828002 h 4.0005 l 9.17575,20.828002 z m -10.82675,-7.14375 -4.03225,-9.144 -4.03225,9.144 z"
           style="font-style:normal;font-variant:normal;font-weight:normal;font-stretch:normal;font-size:31.75px;font-family:'Montserrat Subrayada';-inkscape-font-specification:'Montserrat Subrayada';fill:#c12e15;fill-opacity:1;stroke:none;stroke-width:0.264583"
           id="path834" />
        <path
           d="m 71.733792,120.34308 v 1.36525 h -21.717 v -1.36525 h 3.07975 V 99.515078 h 7.62 q 5.04825,0 7.366,1.936752 2.31775,1.93675 2.31775,5.969 0,4.03225 -2.38125,5.9055 -2.3495,1.87325 -7.239,1.87325 h -3.937 v 5.1435 z m -10.541,-8.54075 q 3.1115,0 4.22275,-1.17475 1.143,-1.2065 1.143,-3.4925 0,-2.31775 -1.42875,-3.27025 -1.42875,-0.9525 -4.47675,-0.9525 h -3.81 v 8.89 z"
           style="font-style:normal;font-variant:normal;font-weight:normal;font-stretch:normal;font-size:31.75px;font-family:'Montserrat Subrayada';-inkscape-font-specification:'Montserrat Subrayada';fill:#c12e15;fill-opacity:1;stroke:none;stroke-width:0.264583"
           id="path836" />
        <path
           d="m 93.450732,120.34308 v 1.36525 h -21.717 v -1.36525 h 3.07975 V 99.515078 h 7.62 q 5.04825,0 7.366,1.936752 2.31775,1.93675 2.31775,5.969 0,4.03225 -2.38125,5.9055 -2.3495,1.87325 -7.239,1.87325 h -3.937 v 5.1435 z m -10.541,-8.54075 q 3.1115,0 4.22275,-1.17475 1.143,-1.2065 1.143,-3.4925 0,-2.31775 -1.42875,-3.27025 -1.42875,-0.9525 -4.47675,-0.9525 h -3.81 v 8.89 z"
           style="font-style:normal;font-variant:normal;font-weight:normal;font-stretch:normal;font-size:31.75px;font-family:'Montserrat Subrayada';-inkscape-font-specification:'Montserrat Subrayada';fill:#c12e15;fill-opacity:1;stroke:none;stroke-width:0.264583"
           id="path838" />
        <path
           d="m 116.81867,120.34308 v 1.36525 H 93.450674 v -1.36525 h 7.048496 q -2.508246,-1.49225 -3.968746,-4.064 -1.42875,-2.57175 -1.42875,-5.81025 0,-4.8895 3.3655,-8.1915 3.397246,-3.302002 8.540746,-3.302002 5.17525,0 8.636,3.810002 l -2.38125,2.6035 q -1.5875,-1.524 -3.01625,-2.12725 -1.397,-0.60325 -3.302,-0.60325 -3.3655,0 -5.6515,2.19075 -2.285996,2.159 -2.285996,5.55625 0,3.3655 2.254246,5.6515 2.286,2.25425 5.3975,2.25425 1.93675,0 3.33375,-0.635 1.397,-0.66675 2.921,-2.0955 l 2.413,2.4765 q -1.397,1.524 -2.667,2.286 z"
           style="font-style:normal;font-variant:normal;font-weight:normal;font-stretch:normal;font-size:31.75px;font-family:'Montserrat Subrayada';-inkscape-font-specification:'Montserrat Subrayada';fill:#c12e15;fill-opacity:1;stroke:none;stroke-width:0.264583"
           id="path840" />
        <path
           d="M 119.89836,120.34308 V 99.515078 h 3.7465 v 10.826752 l 10.16,-10.826752 h 4.7625 l -8.92175,9.715502 8.0645,11.14425 v -0.0318 h 3.07975 v 1.36525 h -6.5405 l -7.366,-9.7155 -3.2385,3.4925 v 6.223 h -6.82625 v -1.36525 z"
           style="font-style:normal;font-variant:normal;font-weight:normal;font-stretch:normal;font-size:31.75px;font-family:'Montserrat Subrayada';-inkscape-font-specification:'Montserrat Subrayada';fill:#c12e15;fill-opacity:1;stroke:none;stroke-width:0.264583"
           id="path842" />
        <path
           d="M 142.25032,120.34308 V 99.515078 h 15.58925 v 3.524252 h -11.84275 v 5.87375 h 10.63625 v 3.33375 h -10.63625 v 5.93725 h 12.22375 v 2.159 h 3.07975 v 1.36525 h -22.12975 v -1.36525 z"
           style="font-style:normal;font-variant:normal;font-weight:normal;font-stretch:normal;font-size:31.75px;font-family:'Montserrat Subrayada';-inkscape-font-specification:'Montserrat Subrayada';fill:#c12e15;fill-opacity:1;stroke:none;stroke-width:0.264583"
           id="path844" />
        <path
           d="m 179.11205,120.34308 v 1.36525 h -19.177 v -1.36525 h 7.71525 v -17.399 h -6.731 v -3.429002 h 17.2085 v 3.429002 h -6.731 v 17.399 z"
           style="font-style:normal;font-variant:normal;font-weight:normal;font-stretch:normal;font-size:31.75px;font-family:'Montserrat Subrayada';-inkscape-font-specification:'Montserrat Subrayada';fill:#c12e15;fill-opacity:1;stroke:none;stroke-width:0.264583"
           id="path846" />
      </g>
      <path
         style="fill:#c12e15;fill-opacity:1;stroke:none;stroke-width:0.264583px;stroke-linecap:butt;stroke-linejoin:miter;stroke-opacity:1"
         d="m 23.41072,120.343 -8.126244,0.75271 8.124218,0.60929 z"
         id="path837"
         sodipodi:nodetypes="cccc" />
    </g>
  </g>
</svg>
